<?xml version="1.0" encoding="utf-8"?>
<!-- Generator: Adobe Illustrator 17.0.0, SVG Export Plug-In . SVG Version: 6.00 Build 0)  -->
<!DOCTYPE svg PUBLIC "-//W3C//DTD SVG 1.1//EN" "http://www.w3.org/Graphics/SVG/1.1/DTD/svg11.dtd">
<svg version="1.1" id="Layer_1" xmlns="http://www.w3.org/2000/svg" xmlns:xlink="http://www.w3.org/1999/xlink" x="0px" y="0px"
	 width="636.006px" height="101.05px" viewBox="0 0 636.006 101.05" enable-background="new 0 0 636.006 101.05"
	 xml:space="preserve">
<g>
	<path d="M79.239,0h17.371v99.17H79.239V0z M67.088,67.507c0,18.331-14.305,33.196-32.095,33.196c-7.349,0-15.02-2.771-19.4-7.851
		l-1.709,6.317H0V0h17.36v40.017c5.002-3.612,11.12-5.702,17.633-5.702C52.784,34.314,67.088,49.172,67.088,67.507z M49.069,67.648
		c0-9.17-6.994-16.35-15.921-16.35c-8.433,0-15.754,7.195-15.754,16.307c0,9.109,7.136,16.306,15.754,16.306
		C42.075,83.911,49.069,76.767,49.069,67.648z M414.145,34.314c-9.709,0-18.607,4.166-24.722,10.977
		c-5.97-6.811-13.358-10.977-24.575-10.977c-4.211,0-12.706,2.154-17.755,7.68l-1.71-6.153h-13.875V99.17h17.355V67.649
		c0-9.155,7.246-16.45,15.878-16.45c8.631,0,16.078,7.295,16.078,16.45V99.17h17.35V67.649c0-9.155,7.066-16.416,15.879-16.416
		s16.072,7.261,16.072,16.416V99.17h17.905V67.649C448.026,47.455,432.477,34.314,414.145,34.314z M525.22,35.841V99.17h-13.872
		l-1.715-6.303c-4.643,5.143-12.045,7.836-19.418,7.836c-17.77,0-32.073-14.865-32.073-33.196c0-18.335,14.304-33.192,32.073-33.192
		c7.373,0,15.457,2.905,19.418,7.826l1.715-6.3H525.22z M507.743,67.551c0-9.168-6.995-16.351-15.921-16.351
		c-8.837,0-15.753,7.184-15.753,16.351c0,9.117,6.916,16.262,15.753,16.262C500.748,83.812,507.743,76.668,507.743,67.551z
		 M622.286,83.815c-8.832,0-15.751-7.139-15.751-16.258l-0.01-15.485h25.402V36.083H606.57V16.78h-17.371v19.303v15.989v15.552
		c0,19.835,15.014,33.326,33.327,33.326c4.728,0,9.187-0.984,13.479-2.911l-7.011-15.687
		C626.967,83.293,624.699,83.815,622.286,83.815z M556.591,67.553c0-9.168,6.921-16.351,15.755-16.351h8.016V34.307l-6.826,0.004
		c-9.182,0-14.322,2.731-18.722,7.525l-1.685-6h-13.883V99.16h17.345V67.642c0-0.007,0-0.014,0-0.019
		C556.591,67.599,556.591,67.575,556.591,67.553z M160.119,35.841c0,0-0.025,31.971-0.025,32.256
		c0,8.826-7.161,15.716-15.908,15.716c-8.833,0-15.753-7.145-15.753-16.262c0-0.138,0.01-31.71,0.01-31.71H110.55v31.393
		c0,20.225,14.698,33.469,32.196,33.469c7.227,0,14.494-2.702,19.146-7.693l1.693,6.16h13.882V35.841H160.119z M293.649,100.959
		c15.877,0,27.171-8.084,27.171-21.75c0-10.311-6.683-15.19-19.778-18.535l-8.652-2.234c-5.156-1.39-7.388-2.641-7.388-4.887
		c0-2.638,3.22-4.585,8.928-4.585c6.262,0,11.192,2.274,16.591,5.484l9.61-11.759c-7.938-5.992-16.587-8.365-24.957-8.365
		c-18.518,0-28.561,10.04-28.561,21.191c0,11.85,8.635,15.748,20.765,18.809l9.473,2.374c3.771,0.973,5.725,1.958,5.725,4.46
		c0,2.652-2.664,4.742-8.365,4.742c-7.671,0-14.686-3.392-20.583-8.159l-10.23,12.461
		C271.486,97.469,282.228,100.959,293.649,100.959z M256.716,67.674c0-18.433-14.455-33.359-33.315-33.359
		c-18.848,0-34.201,14.927-34.201,33.359c0,18.431,15.354,33.376,34.201,33.376c9.914,0,19.13-4.053,25.553-11.59l-11.713-10.123
		c-3.87,3.243-7.5,5.979-14.336,5.979c-6.837,0-14.777-4.51-15.656-11.779h48.776C256.445,71.867,256.716,69.221,256.716,67.674z
		 M223.401,50.047c8.983,0,15.138,5.746,16.157,11.622h-32.272C208.809,55.457,214.415,50.047,223.401,50.047z"/>
</g>
</svg>
