<svg xmlns="http://www.w3.org/2000/svg" width="636.006" height="101.05" viewBox="0 0 636.006 101.05"><path d="M79.239 0H96.61v99.17H79.239V0zM67.088 67.507c0 18.331-14.305 33.196-32.095 33.196-7.349 0-15.02-2.771-19.4-7.851l-1.709 6.317H0V0h17.36v40.017a30.067 30.067 0 0 1 17.633-5.702c17.791-.001 32.095 14.857 32.095 33.192zm-18.019.141c0-9.17-6.994-16.35-15.921-16.35-8.433 0-15.754 7.195-15.754 16.307 0 9.109 7.136 16.306 15.754 16.306 8.927 0 15.921-7.144 15.921-16.263zm365.076-33.334c-9.709 0-18.607 4.166-24.722 10.977-5.97-6.811-13.358-10.977-24.575-10.977-4.211 0-12.706 2.154-17.755 7.68l-1.71-6.153h-13.875V99.17h17.355V67.649c0-9.155 7.246-16.45 15.878-16.45 8.631 0 16.078 7.295 16.078 16.45V99.17h17.35V67.649c0-9.155 7.066-16.416 15.879-16.416s16.072 7.261 16.072 16.416V99.17h17.905V67.649c.001-20.194-15.548-33.335-33.88-33.335zm111.075 1.527V99.17h-13.872l-1.715-6.303c-4.643 5.143-12.045 7.836-19.418 7.836-17.77 0-32.073-14.865-32.073-33.196 0-18.335 14.304-33.192 32.073-33.192 7.373 0 15.457 2.905 19.418 7.826l1.715-6.3h13.872zm-17.477 31.71c0-9.168-6.995-16.351-15.921-16.351-8.837 0-15.753 7.184-15.753 16.351 0 9.117 6.916 16.262 15.753 16.262 8.926-.001 15.921-7.145 15.921-16.262zm114.543 16.264c-8.832 0-15.751-7.139-15.751-16.258l-.01-15.485h25.402V36.083H606.57V16.78h-17.371v50.844c0 19.835 15.014 33.326 33.327 33.326 4.728 0 9.187-.984 13.479-2.911l-7.011-15.687a15.869 15.869 0 0 1-6.708 1.463zm-65.695-16.262c0-9.168 6.921-16.351 15.755-16.351h8.016V34.307l-6.826.004c-9.182 0-14.322 2.731-18.722 7.525l-1.685-6h-13.883V99.16h17.345V67.642v-.019-.07zM160.119 35.841l-.025 32.256c0 8.826-7.161 15.716-15.908 15.716-8.833 0-15.753-7.145-15.753-16.262l.01-31.71H110.55v31.393c0 20.225 14.698 33.469 32.196 33.469 7.227 0 14.494-2.702 19.146-7.693l1.693 6.16h13.882V35.841h-17.348zm133.53 65.118c15.877 0 27.171-8.084 27.171-21.75 0-10.311-6.683-15.19-19.778-18.535l-8.652-2.234c-5.156-1.39-7.388-2.641-7.388-4.887 0-2.638 3.22-4.585 8.928-4.585 6.262 0 11.192 2.274 16.591 5.484l9.61-11.759c-7.938-5.992-16.587-8.365-24.957-8.365-18.518 0-28.561 10.04-28.561 21.191 0 11.85 8.635 15.748 20.765 18.809l9.473 2.374c3.771.973 5.725 1.958 5.725 4.46 0 2.652-2.664 4.742-8.365 4.742-7.671 0-14.686-3.392-20.583-8.159l-10.23 12.461c8.088 7.263 18.83 10.753 30.251 10.753zm-36.933-33.285c0-18.433-14.455-33.359-33.315-33.359-18.848 0-34.201 14.927-34.201 33.359 0 18.431 15.354 33.376 34.201 33.376 9.914 0 19.13-4.053 25.553-11.59l-11.713-10.123c-3.87 3.243-7.5 5.979-14.336 5.979-6.837 0-14.777-4.51-15.656-11.779h48.776c.42-1.67.691-4.316.691-5.863zm-33.315-17.627c8.983 0 15.138 5.746 16.157 11.622h-32.272c1.523-6.212 7.129-11.622 16.115-11.622z"/></svg>