<svg xmlns="http://www.w3.org/2000/svg" width="176.621" height="195.672" viewBox="0 0 176.621 195.672"><path d="M88.306 16.342c9.289 0 16.854 7.559 16.854 16.854 0 9.296-7.564 16.856-16.854 16.856-9.292 0-16.857-7.561-16.857-16.856-.001-9.296 7.565-16.854 16.857-16.854m0 50.046c18.304 0 33.201-14.889 33.201-33.192C121.507 14.89 106.609 0 88.306 0c-18.31 0-33.199 14.89-33.199 33.195-.001 18.304 14.889 33.193 33.199 33.193m-55.118 48.3c-9.289 0-16.845-7.559-16.845-16.852 0-9.295 7.556-16.854 16.845-16.854 9.302 0 16.865 7.56 16.865 16.854.001 9.293-7.563 16.852-16.865 16.852m33.206-16.852c0-18.308-14.89-33.199-33.205-33.199C14.896 64.637 0 79.528 0 97.836c0 18.303 14.896 33.195 33.188 33.195 18.316 0 33.206-14.892 33.206-33.195m21.912 81.49c-9.292 0-16.857-7.562-16.857-16.849 0-9.298 7.565-16.859 16.857-16.859 9.289 0 16.854 7.562 16.854 16.859-.001 9.287-7.565 16.849-16.854 16.849m0-50.051c-18.31 0-33.199 14.895-33.199 33.202 0 18.3 14.89 33.194 33.199 33.194 18.304 0 33.201-14.895 33.201-33.194 0-18.307-14.898-33.202-33.201-33.202m55.101-14.589c-9.287 0-16.851-7.557-16.851-16.85 0-9.295 7.563-16.854 16.851-16.854 9.297 0 16.855 7.56 16.855 16.854.001 9.293-7.558 16.85-16.855 16.85m0-50.049c-18.301 0-33.196 14.892-33.196 33.199 0 18.303 14.896 33.195 33.196 33.195 18.309 0 33.214-14.893 33.214-33.195 0-18.308-14.905-33.199-33.214-33.199"/></svg>